PathFileType	4	(X/Y/Z)	E:\Qualisys_Data\Carbon_Farble_Plate\Data\Amateur_Runner\S1\T1\S1T1V23_c3d.trc
DataRate	CameraRate	NumFrames	NumMarkers	Units	OrigDataRate	OrigDataStartFrame	OrigNumFrames
200.000000	200.000000	4	39	mm	200.000000	238	273
Frame#	Time	LSHO			RSHO			LICST			RICST			LASIS			LHEEL			RASIS			LTROC			RTROC			SACR			LTH1			LSK4			LTH2			LTH3			RHM5			LSK2			LTH4			RTH1			LTOE			RTH2			RTH3			RTH4			LLEP			RLEP			LSK1			LSK3			RSK1			LHM5			RSK2			LFT1			RSK3			RSK4			LLME			RLME			RTOE			RHEEL			RFT1			RFT2			LFT2			
		X1	Y1	Z1	X2	Y2	Z2	X3	Y3	Z3	X4	Y4	Z4	X5	Y5	Z5	X6	Y6	Z6	X7	Y7	Z7	X8	Y8	Z8	X9	Y9	Z9	X10	Y10	Z10	X11	Y11	Z11	X12	Y12	Z12	X13	Y13	Z13	X14	Y14	Z14	X15	Y15	Z15	X16	Y16	Z16	X17	Y17	Z17	X18	Y18	Z18	X19	Y19	Z19	X20	Y20	Z20	X21	Y21	Z21	X22	Y22	Z22	X23	Y23	Z23	X24	Y24	Z24	X25	Y25	Z25	X26	Y26	Z26	X27	Y27	Z27	X28	Y28	Z28	X29	Y29	Z29	X30	Y30	Z30	X31	Y31	Z31	X32	Y32	Z32	X33	Y33	Z33	X34	Y34	Z34	X35	Y35	Z35	X36	Y36	Z36	X37	Y37	Z37	X38	Y38	Z38	X39	Y39	Z39	

239	1.19	2290.83740234375	1487.281005859375	-541.2926635742188	2219.2607421875	1495.344360351562	-218.5115661621094	2232.940673828125	1017.387084960938	-506.883056640625	2229.566162109375	1049.359619140625	-208.4092864990234	2279.275146484375	979.7428588867188	-481.0145263671875	1788.681030273438	173.4587097167969	-378.5155639648438	2269.23388671875	1002.967712402344	-216.7594451904297	2156.664794921875	903.0734252929688	-518.8612670898438	2180.040283203125	910.4057006835938	-177.4658050537109	2113.382080078125	1049.03466796875	-355.10595703125	2257.365234375	735.328125	-484.9525451660156	1905.294555664062	305.1378784179688	-415.5325622558594	2178.337158203125	741.351806640625	-517.2775268554688	2239.392333984375	635.1368408203125	-467.1112976074219	2322.09814453125	169.9526519775391	-185.3486480712891	1969.981567382812	373.7330322265625	-458.0374755859375	2157.221435546875	646.2688598632812	-489.9974060058594	2355.6630859375	867.4500732421875	-206.4918823242188	2002.462524414062	48.95178985595703	-381.5389099121094	2300.97314453125	817.042724609375	-174.1233520507812	2423.74169921875	791.4918823242188	-207.5291290283203	2364.0673828125	739.7218627929688	-185.9130859375	2150.344970703125	492.8838806152344	-449.6047668457031	2476.67431640625	617.9110717773438	-221.4386596679688	2030.725708007812	315.956787109375	-445.639892578125	1957.349853515625	247.3310852050781	-436.7886962890625	2388.7958984375	456.6302490234375	-203.2311553955078	1937.646484375	59.57081604003906	-443.097900390625	2321.5302734375	500.1156616210938	-217.1670227050781	1787.800048828125	147.5367279052734	-348.8789978027344	2336.438720703125	371.2223205566406	-214.0939178466797	2270.997802734375	414.3229064941406	-236.1998138427734	1854.808715820312	177.1181945800781	-425.8900451660156	2237.21142578125	279.871337890625	-213.7480621337891	2396.52880859375	161.76904296875	-259.0588989257812	2163.3388671875	265.73583984375	-259.0681762695312	2164.180419921875	233.8188934326172	-289.325439453125	2156.98388671875	241.270263671875	-232.6069641113281	1779.328369140625	146.1318969726562	-401.7925109863281
240	1.195	2312.930419921875	1491.727416992188	-539.5146484375	2238.77490234375	1498.630493164062	-218.296875	2256.06640625	1020.890441894531	-506.667236328125	2251.15771484375	1053.505249023438	-208.5507659912109	2302.483642578125	983.2364501953124	-480.9607849121094	1799.28466796875	184.4416351318359	-380.0542297363281	2290.90087890625	1006.95458984375	-216.9760284423828	2178.910400390625	906.8424682617188	-518.70751953125	2202.552001953125	914.4661254882812	-177.3397369384766	2136.118408203125	1052.941772460938	-355.2972106933594	2276.5341796875	737.9954833984375	-484.4995727539062	1916.914306640625	312.6570434570312	-416.7422180175781	2198.110107421875	745.8416748046875	-516.934326171875	2255.8828125	637.1463623046875	-464.9063720703125	2367.360595703125	165.7649383544922	-185.0585632324219	1981.704345703125	380.692138671875	-459.2289123535156	2174.645263671875	650.6663208007812	-489.5567626953125	2378.912109375	872.1145629882812	-207.3556213378906	2005.181030273438	49.05002593994141	-382.3000183105469	2324.3515625	821.7324829101562	-174.297607421875	2446.895751953125	796.17919921875	-208.2917938232422	2387.0068359375	744.7269897460938	-186.3932342529297	2164.680419921875	498.3241271972656	-449.6850280761719	2499.052490234375	622.403564453125	-221.7559356689453	2042.5498046875	322.6540222167969	-447.6966552734375	1968.070190429688	254.2434844970703	-439.2916564941406	2418.56884765625	455.2232971191406	-203.5629730224609	1940.968383789062	60.69919586181641	-443.8577575683594	2348.474609375	495.7529602050781	-216.4561920166016	1797.538940429688	158.8846435546875	-350.1190490722656	2371.007080078125	367.4232177734375	-214.0823974609375	2303.158447265625	407.1153564453125	-236.5850067138672	1864.93505859375	185.1330718994141	-428.3580932617188	2276.50341796875	270.6411437988281	-213.8066253662109	2442.435546875	161.9831695556641	-258.4623107910156	2202.959228515625	252.700439453125	-258.1430358886719	2206.11962890625	220.1151580810547	-289.4915466308594	2201.08837890625	228.5815582275391	-232.3467407226562	1788.5068359375	157.2328186035156	-403.094482421875
241	1.2	2335.453369140625	1496.631958007812	-537.9163208007812	2258.771484375	1502.212524414062	-217.5094604492188	2279.377685546875	1024.574462890625	-506.54296875	2273.948486328125	1057.715209960938	-208.6485137939453	2325.413818359375	986.70849609375	-480.7272033691406	1811.489990234375	195.3923034667969	-381.4583740234375	2313.30810546875	1011.369079589844	-216.8996734619141	2201.028076171875	910.3739013671876	-518.3165283203125	2225.441162109375	918.6480712890624	-177.0883941650391	2158.7333984375	1056.586059570312	-355.4129638671875	2296.02490234375	740.5836791992188	-484.5646667480469	1929.171264648438	319.5817260742188	-418.0820922851562	2217.752197265625	749.5812377929688	-516.6663208007812	2272.932373046875	640.160400390625	-464.5864562988281	2412.72119140625	161.8098449707031	-184.8331146240234	1994.591186523438	387.4154663085938	-460.1364135742188	2192.702880859375	655.7025146484375	-489.7615356445312	2401.62353515625	876.434814453125	-208.2237396240234	2007.167358398438	47.94557952880859	-382.7662963867188	2347.204345703125	826.0717163085938	-175.2355804443359	2469.64794921875	800.501220703125	-209.6197967529297	2409.843994140625	748.9298095703125	-187.1007995605469	2179.046875	502.7887268066406	-449.7338256835938	2520.769287109375	626.2055053710938	-221.8087158203125	2054.7802734375	328.0102233886719	-448.0002136230469	1980.012817382812	260.9973754882812	-441.5067138671875	2448.205078125	453.9627990722656	-203.1868133544922	1944.85498046875	61.97928619384766	-444.8009033203125	2375.9970703125	490.7092590332031	-216.6861877441406	1808.407958984375	170.9340057373047	-351.8499145507812	2404.935546875	363.9163208007812	-214.2675018310547	2335.26904296875	399.7648620605469	-236.4041900634766	1876.661010742188	192.6912689208984	-429.8733215332031	2315.94287109375	261.6931762695312	-213.5019989013672	2488.1806640625	162.5816345214844	-257.8744201660156	2243.926025390625	239.4782562255859	-259.4234313964844	2249.02783203125	207.1841125488281	-289.5228881835938	2242.80322265625	215.0381317138672	-232.3585510253906	1798.720458984375	168.9174346923828	-404.7110290527344
242	1.205	2357.455810546875	1500.819580078125	-536.6131591796875	2278.56591796875	1505.396728515625	-217.3840179443359	2302.243896484375	1027.915405273438	-506.1228942871094	2295.900146484375	1061.247680664062	-208.5111389160156	2348.6220703125	989.9537963867188	-480.5103149414062	1824.582763671875	206.6854858398438	-383.1644287109375	2335.513916015625	1015.12744140625	-216.9238739013672	2223.40283203125	914.6678466796876	-518.3638305664062	2248.068115234375	922.9110717773438	-176.8015594482422	2181.333740234375	1059.8818359375	-355.5867919921875	2315.352294921875	743.1107788085938	-484.6189880371094	1942.065673828125	326.4225769042969	-419.9830017089844	2237.397705078125	753.9127807617188	-516.8429565429688	2290.9052734375	644.0388793945312	-464.7203369140625	2457.035888671875	158.5663909912109	-183.7878112792969	2007.98046875	394.3136596679688	-461.8087158203125	2210.412841796875	659.7521362304688	-490.3941650390625	2424.25341796875	880.0614624023438	-208.7249450683594	2009.944946289062	47.06882476806641	-383.7033081054688	2369.736083984375	830.1566162109375	-175.8423767089844	2492.0517578125	803.8707275390625	-210.37890625	2432.093017578125	752.4197998046875	-188.1232452392578	2194.419921875	507.4975891113281	-449.4285583496094	2542.425048828125	628.982177734375	-222.425537109375	2068.446044921875	334.9168395996094	-451.0160827636719	1992.646362304688	267.5177612304688	-443.7560119628906	2477.570068359375	451.8573913574219	-202.0214538574219	1948.764892578125	63.65613555908203	-446.386962890625	2403.65625	484.7576293945312	-216.4378356933594	1820.250732421875	182.4780578613281	-352.8731079101562	2438.62353515625	359.5679016113281	-214.2133636474609	2367.664306640625	392.3727416992188	-236.4436645507812	1888.036010742188	198.8926849365234	-432.004150390625	2354.6552734375	253.5999755859375	-213.7322540283203	2533.304931640625	163.41015625	-257.2396545410156	2284.935791015625	226.6485748291016	-259.5216369628906	2291.919921875	194.8120422363281	-290.1743774414062	2284.990234375	202.1374053955078	-231.6240386962891	1810.3125	180.8928070068359	-405.8327941894531
